<?xml version="1.0" encoding="UTF-8" standalone="no"?>
<!-- Created with Inkscape (http://www.inkscape.org/) -->

<svg
   width="94.25573mm"
   height="51.070518mm"
   viewBox="0 0 94.255729 51.070518"
   version="1.1"
   id="svg5"
   xmlns="http://www.w3.org/2000/svg"
   xmlns:svg="http://www.w3.org/2000/svg">
  <defs
     id="defs2">
    <rect
       x="-939.93341"
       y="416.60526"
       width="555.47363"
       height="128.58186"
       id="rect18145" />
  </defs>
  <g
     id="layer1"
     transform="translate(-124.54504,-109.09352)">
    <path
       id="path1179"
       style="fill:#ffffff;fill-opacity:1;stroke-width:0.10859"
       d="m 181.18854,109.09352 -0.49586,0.0246 -0.49608,0.0244 -0.86045,0.21294 -0.86045,0.21294 -0.93128,0.34103 -0.93129,0.34105 -0.65153,0.24687 -0.65154,0.24687 -0.88654,0.22545 -0.88632,0.22545 -1.12259,0.0965 -1.12238,0.0967 -0.10859,-0.0764 -0.10859,-0.0763 -0.76012,-0.30689 -0.76013,-0.30711 -0.38388,-0.29671 -0.38389,-0.29671 -0.56628,-0.28696 -0.56628,-0.28696 v -0.095 -0.095 l -0.26468,-0.0664 -0.26469,-0.0666 -0.414,0.23987 -0.414,0.23988 -0.0797,0.11346 -0.0797,0.11347 -4.3e-4,0.16289 -4.4e-4,0.16288 0.92174,0.48611 0.92174,0.48632 v 0.0838 0.084 h 0.17434 0.17434 l 0.33616,0.28293 0.33637,0.28293 0.61337,0.29714 0.61336,0.29713 0.69481,0.0831 0.69501,0.0831 0.43436,0.0403 0.43436,0.0401 0.76013,-0.11495 0.76013,-0.11474 0.70583,-0.22121 0.70584,-0.22121 0.92301,-0.36267 0.92301,-0.36289 0.81443,-0.23181 0.81442,-0.23181 0.65154,-0.15462 0.65154,-0.15461 0.34358,-0.0651 0.34359,-0.0653 1.18282,0.81422 1.18304,0.81421 0.85047,0.393 0.8507,0.393 0.8263,-4.3e-4 0.8263,-2.2e-4 1.30307,-0.32938 1.30308,-0.32937 1.52026,-0.49926 1.52026,-0.49947 0.54295,-0.22142 0.54294,-0.22121 0.94783,-0.0488 0.94804,-0.0488 0.38601,0.33892 0.386,0.33913 h 0.14231 0.14231 l 0.20658,0.22821 0.20657,0.22842 0.73871,0.45026 0.73871,0.45048 0.50456,0.30774 0.50435,0.30796 0.4403,0.0874 v 2.1e-4 l 0.44029,0.0874 0.43436,0.008 0.43436,0.008 0.59725,-0.15482 0.59724,-0.15483 0.48865,-0.13807 0.48866,-0.13807 0.0543,-0.0562 0.0543,-0.0562 0.21718,-0.0363 0.21718,-0.0363 0.10307,-0.0995 0.10329,-0.0995 h 0.21739 0.21761 l 1.09098,-0.33086 1.09099,-0.33107 0.28823,-0.15759 0.28823,-0.15779 h 0.22376 0.22396 l 0.35653,-0.15292 0.35673,-0.1527 0.67869,-0.19025 0.67868,-0.19003 v -0.0252 -0.0252 l -0.193,-0.41908 -0.193,-0.41909 -0.13616,-0.24327 -0.13595,-0.24327 -0.18664,0.0976 -0.18685,0.0978 -1.0316,0.34507 -1.03161,0.34507 -0.92301,0.24857 -0.92301,0.24856 -1.46597,0.51708 -1.46596,0.51707 -1.23966,-0.024 -1.23967,-0.024 -0.38918,-0.31516 -0.38918,-0.31517 -0.59428,-0.43606 -0.59448,-0.43584 h -0.10478 -0.10456 l -0.64942,-0.51029 -0.64941,-0.51007 -0.62567,-0.0452 -0.62545,-0.0454 -0.74083,0.12683 -0.74061,0.12704 -0.41061,0.21124 -0.4106,0.21145 -0.13235,6.5e-4 -0.13234,6.5e-4 -0.29141,0.15207 -0.2912,0.15186 -0.34507,0.0759 -0.34507,0.0757 -0.99258,0.32641 -0.99237,0.32619 -1.19448,0.23394 -1.19449,0.23372 -0.72514,-0.073 -0.72492,-0.073 -0.27317,-0.14549 -0.27317,-0.14549 -0.63076,-0.36862 -0.63054,-0.3684 -0.42609,-0.36394 -0.4263,-0.36395 -0.4895,-0.23711 z m 27.71246,0.99724 0.12428,0.23245 0.1245,0.23245 -0.0341,0.0991 -0.0341,0.099 -0.13468,-0.28717 -0.13468,-0.28716 0.0445,-0.0443 z m -1.814,0.64836 0.0318,0.038 0.0318,0.0382 0.0715,0.29862 0.0717,0.29841 -0.0293,-0.003 -0.0291,-0.003 -0.19024,-0.26151 -0.19025,-0.26151 0.11602,-0.0717 z m -36.82637,0.78197 h 0.10859 0.10859 v 0.10859 0.10859 h -0.10859 -0.10859 v -0.10859 z m 33.33707,0.32577 h 0.10859 0.10859 v 0.10859 0.10859 h -0.10859 -0.10859 v -0.10859 z m -26.1273,0.76013 -0.12937,0.12916 -0.12917,0.12938 -0.46256,0.0233 -0.46236,0.0231 -0.73128,0.36331 -0.73129,0.3633 -0.002,0.24433 -0.001,0.24433 h -0.11071 -0.11071 l 0.0492,0.27147 0.0492,0.27148 h -0.10668 -0.10647 l -0.23945,-0.25854 -0.23966,-0.25832 -0.51538,-0.0411 -0.51538,-0.0409 v 0.14528 0.14507 l -0.32577,-0.0715 -0.32577,-0.0717 v 0.12449 0.12471 l -0.24432,-0.0761 -0.24433,-0.0759 -0.0363,-0.0942 -0.0363,-0.0942 h -0.12747 -0.12747 l -0.49713,0.26447 -0.49714,0.26469 -1.51093,0.0242 -1.51092,0.024 -1.14019,-0.46448 -1.1402,-0.46426 -0.41972,-0.17158 -0.41973,-0.17137 -0.31028,0.37434 -0.3105,0.37433 -0.002,0.10859 -0.003,0.10859 1.11262,0.5648 1.11283,0.56479 0.59725,0.23839 0.59724,0.23839 0.70308,0.13828 0.70286,0.13828 0.0607,-0.0375 0.0609,-0.0375 1.67954,-0.0759 1.67953,-0.0761 0.16289,-0.004 0.16288,-0.004 1.03161,0.085 1.0316,0.085 0.27147,0.0272 0.27148,0.0271 0.0814,0.014 0.0814,0.014 -0.0129,0.0814 -0.0127,0.0815 0.0127,0.14719 0.0129,0.1474 0.16289,-0.0626 0.16288,-0.0623 v 0.15673 0.15652 l 0.32577,0.16862 0.32577,0.16839 v 0.10584 0.10583 h 0.33192 0.33171 l 0.78134,0.79618 0.78112,0.79619 0.7894,0.19342 0.78961,0.19322 0.26914,-0.0515 0.26935,-0.0513 v 0.0808 0.0808 l 0.67869,0.0721 0.67869,0.0721 1.08377,-0.17498 1.08378,-0.17497 0.0564,-0.06 0.0564,-0.0602 -0.51898,0.0617 -0.51877,0.0617 0.0539,-0.0874 0.0541,-0.0874 0.66406,-0.0694 0.66426,-0.0696 0.1245,-0.077 0.12471,-0.077 0.16479,-0.0208 0.16479,-0.0208 0.74931,-0.19406 0.74953,-0.19406 0.28208,0.16331 0.28229,0.16331 0.26235,0.15504 0.26215,0.15503 0.17221,0.1438 0.17201,0.14401 0.87275,0.57391 0.87296,0.5737 0.91877,0.51623 0.91898,0.51601 0.38007,0.35398 0.38006,0.35398 0.48865,0.17285 0.48866,0.17307 0.27105,0.0433 h 4.3e-4 l 0.27105,0.0433 0.76013,0.0163 0.76013,0.0161 0.81443,-0.17031 0.81442,-0.17031 0.97731,-0.32937 0.97731,-0.32938 1.30307,-0.37964 1.30308,-0.37985 0.87805,-0.0571 0.87805,-0.0568 0.37073,0.19788 0.37074,0.19809 0.37645,0.1351 0.37646,0.1351 0.0834,-0.13107 0.0834,-0.13107 0.0144,-0.21718 0.0146,-0.21718 -0.021,-0.16289 -0.021,-0.16288 -0.2895,-0.42375 -0.28951,-0.42376 -0.35037,-0.14634 -0.35037,-0.14634 -0.68229,0.001 -0.68208,0.001 -0.59724,0.16882 -0.59725,0.16904 -0.59724,0.15949 -0.59725,0.15949 -0.21718,0.0971 -0.21718,0.0971 -1.0316,0.27423 -1.0316,0.27424 -0.65154,0.12089 -0.65154,0.12068 -0.19046,0.0543 -0.19066,0.0543 -0.16777,0.29119 -0.16776,0.2912 0.0441,-0.29607 0.0441,-0.29587 -0.7737,0.0653 -0.77392,0.0655 -0.59512,-0.25026 -0.59512,-0.25027 -1.35738,-0.86469 -1.35737,-0.8649 -0.33107,-0.3105 -0.33086,-0.31029 h -0.0944 -0.0942 l -0.172,-0.16712 -0.17201,-0.16692 -0.52089,-0.34888 -0.52089,-0.34868 -0.38282,-0.22948 -0.38261,-0.22927 -1.10541,0.19809 -1.1052,0.19788 -1.0316,0.23139 -1.03161,0.23139 -0.24941,0.0986 -0.24963,0.0986 h -0.26787 -0.26808 l -0.57498,-0.3247 -0.57519,-0.3245 -0.12089,0.12089 -0.12089,0.12089 -0.32195,-0.11241 -0.32216,-0.11219 -0.11496,0.11495 -0.11495,0.11495 -0.24984,-0.1754 -0.24984,-0.17539 -0.16289,-0.13935 -0.16288,-0.13934 -0.15207,-0.19364 -0.15185,-0.19342 0.2948,0.11198 0.29459,0.1122 0.0744,-6.5e-4 0.0744,-6.6e-4 -0.32577,-0.27105 -0.32577,-0.27105 -0.76013,-0.36458 -0.76013,-0.36479 -0.2912,-0.0696 -0.29098,-0.0698 -0.16268,-0.16267 -0.16267,-0.16267 h -0.12895 -0.12874 l 0.18537,-0.28314 0.18558,-0.28314 -0.12323,-0.12322 -0.12322,-0.12323 -0.077,0.12365 -0.0768,0.12386 -0.27148,0.0231 -0.27147,0.0231 -0.0853,-0.0121 -0.0853,-0.0119 0.11622,-0.21718 0.11623,-0.21718 h 0.21675 0.21697 l 0.0982,-0.24433 0.0982,-0.24432 0.007,0.20148 0.007,0.2017 0.17243,-0.0662 0.17222,-0.0662 0.39767,-0.0619 0.39788,-0.0622 0.96713,0.33065 0.96734,0.33065 0.39003,0.25514 0.39024,0.25493 0.21718,0.0795 0.21718,0.0793 0.76013,0.44539 0.76013,0.44517 0.40382,0.2543 0.40382,0.25429 0.71919,-0.0532 0.71898,-0.0534 0.0884,-0.0545 0.0884,-0.0547 1.06893,-0.22206 1.06914,-0.22227 0.27148,-0.0515 0.27147,-0.0515 0.93934,-0.21548 0.93956,-0.2157 0.17349,0.0666 0.1737,0.0666 v 0.0819 0.0819 l -0.27147,-0.0517 -0.27148,-0.052 v 0.11156 0.11177 l 0.62439,0.44008 0.6244,0.4403 0.92301,0.56331 0.92301,0.5631 0.21718,0.18897 0.21718,0.18897 0.71411,0.4333 0.7141,0.43351 0.6649,0.24242 0.6649,0.24242 0.7385,-0.0615 0.73849,-0.0613 0.61803,-0.10393 0.61803,-0.10371 1.39088,-0.67847 1.39089,-0.67826 0.27147,-0.18516 0.27148,-0.18494 0.70583,-0.28059 0.70583,-0.28081 0.33786,-0.16967 0.33807,-0.16967 0.53065,-0.11305 0.53086,-0.11304 0.5069,-0.0623 0.50689,-0.0624 0.55991,0.13425 0.55992,0.13447 0.53489,0.35991 0.53489,0.35992 v -0.17158 -0.17137 l -0.23457,-0.64327 -0.23457,-0.64326 -0.33553,-0.25388 -0.33552,-0.25365 -0.48272,-0.12853 -0.4825,-0.12853 -0.6034,0.0738 -0.60318,0.0738 -0.69523,0.15949 -0.69502,0.15949 -0.42714,0.21782 -0.42715,0.21802 -0.63521,0.45451 -0.63521,0.45451 -0.0513,0.19003 -0.0511,0.19003 h -0.21378 -0.21379 l -0.80085,0.36459 -0.80085,0.36458 -0.71474,0.12407 -0.71474,0.12407 -0.80552,-10e-4 -0.80551,-0.001 -0.54295,-0.14485 -0.54295,-0.14507 -0.46808,-0.23945 -0.46809,-0.23924 -0.84199,-0.58325 -0.842,-0.58324 -0.77773,-0.37858 -0.77773,-0.37837 -0.46405,-0.0647 -0.46405,-0.0649 0.26002,0.11156 0.26002,0.11135 -0.0549,0.0549 -0.0549,0.0549 -0.28654,-0.1088 -0.28653,-0.10901 8.7e-4,-0.0842 6.5e-4,-0.084 0.41294,-0.23584 0.41273,-0.23564 0.86235,-0.17921 0.86236,-0.17922 0.84751,0.0738 0.84751,0.0738 0.8422,0.55822 0.84242,0.55843 0.2104,0.13086 0.2106,0.13086 0.79131,0.38494 0.79152,0.38494 h 0.13701 0.13701 l 0.1054,0.10541 0.10541,0.10541 0.81209,0.11601 0.81231,0.1158 0.43436,-0.067 0.43435,-0.067 0.59449,-0.39873 0.59449,-0.39851 0.19279,-0.19004 0.19279,-0.19003 v -0.10604 -0.10583 l -0.35292,0.0787 -0.35292,0.0789 -0.59724,-0.01 -0.59725,-0.009 -0.54294,-0.0606 -0.54295,-0.0605 -0.65154,-0.16225 -0.65154,-0.16224 -0.48866,-0.23352 -0.48865,-0.23372 -0.48865,-0.27571 -0.48866,-0.27572 -0.21718,-0.1983 -0.21718,-0.19831 -0.76013,-0.35779 -0.76012,-0.35759 -0.70584,0.005 -0.70583,0.005 -1.46596,0.44093 -1.46597,0.44073 -0.97731,0.23266 -0.9773,0.23245 -0.48866,0.10392 -0.48865,0.10393 -1.08102,0.21654 -1.08102,0.21654 h -0.41336 -0.41358 l -0.8403,-0.40042 -0.84008,-0.40043 -0.39598,-0.33255 -0.39597,-0.33256 -0.81506,-0.25175 -0.81506,-0.25175 -0.20063,-0.15207 -0.20064,-0.15207 -0.43987,-0.003 z m -2.13065,1.95695 0.13404,0.16161 0.13425,0.16183 h -0.23054 -0.23033 v -0.10223 -0.10223 l 0.0963,-0.0596 z m -2.45939,0.0836 0.0655,0.0655 0.0655,0.0658 -0.20806,-0.009 -0.20806,-0.008 0.14253,-0.0571 z m -0.46511,0.077 0.008,0.17052 0.009,0.17052 0.57009,-0.0812 0.5701,-0.0812 0.27147,-0.005 0.27148,-0.004 -0.17646,0.10286 -0.17625,0.10308 -0.69247,0.0511 -0.69226,0.0511 -0.27147,-0.0923 -0.27148,-0.0923 0.23521,-0.0108 0.23521,-0.0108 0.0549,-0.13574 z m 12.32579,0.76565 0.0475,0.14252 0.0475,0.14231 -0.11474,0.11474 -0.11475,0.11474 0.0672,-0.25726 z m -14.49335,0.26596 h 0.16946 0.16925 v 0.10859 0.10859 h -0.10223 -0.10222 l -0.067,-0.10859 z m 4.24794,0.10859 h 0.16289 0.16288 v 0.10859 0.10859 h -0.16288 -0.16289 v -0.10859 z m 0.49884,0.008 0.48356,0.14549 0.48357,0.14571 0.10583,0.005 0.10583,0.005 0.039,0.11665 0.0388,0.11686 -0.0363,-0.0112 -0.036,-0.011 -0.32577,-0.0838 -0.32577,-0.0838 -0.31368,-0.12535 -0.31368,-0.12534 0.0473,-0.0473 z m 1.78155,0.19491 0.29014,0.0344 0.29035,0.0344 0.0445,0.13574 0.0445,0.13574 h -0.26236 -0.26257 l -0.0723,-0.0725 -0.0723,-0.0723 v -0.0978 z m 1.11686,0.009 0.0496,0.0496 0.0496,0.0496 -0.0715,0.11601 -0.0717,0.1158 h -0.11538 -0.11559 l 0.13744,-0.16564 z m 0.18622,0.31813 0.10859,0.0672 0.10859,0.067 v 0.0479 0.0479 h -0.10859 -0.10859 v -0.11517 z m -1.64009,0.66681 0.1684,0.0647 0.16861,0.0647 v 0.0426 0.0428 h -0.10223 -0.10222 l -0.0664,-0.10753 z m -2.69629,0.07 -0.41082,0.1737 -0.41082,0.1737 -0.38006,0.0611 -0.38007,0.0609 -1.39936,0.11325 -1.39937,0.11326 -0.22948,0.12428 -0.22948,0.12407 -2.41294,0.17625 -2.41295,0.17625 -0.0424,0.0483 -0.0422,0.0486 -0.0694,0.45218 -0.0691,0.45217 0.82248,0.44369 0.82269,0.44369 0.23585,-0.002 0.23605,-0.002 0.76013,-0.16967 0.76013,-0.16967 0.81442,-0.15568 0.81443,-0.15546 0.43436,-0.0626 0.43436,-0.0626 0.43435,-0.10307 0.43436,-0.10329 0.13256,-0.0289 0.13256,-0.0288 0.0757,-0.0755 0.0755,-0.0755 h 0.23499 0.235 l 0.49226,-0.24942 0.49226,-0.2492 0.12343,0.0411 0.12323,0.0411 v 0.15376 0.15398 l -0.12938,-0.0274 -0.12916,-0.0272 -0.0416,0.18982 -0.0414,0.18961 0.14677,-0.0564 0.14698,-0.0564 0.0227,0.27402 0.0225,0.27381 h -0.20954 -0.20955 l -0.0607,0.0986 -0.0609,0.0984 -0.57009,0.0766 -0.56989,0.0766 -0.10986,0.0882 -0.10986,0.0882 -0.32068,0.0354 -0.32068,0.0352 -0.17731,-0.36925 -0.17709,-0.36946 -0.0713,0.11517 -0.0713,0.11538 0.0662,0.17264 0.0662,0.17264 h 0.0971 0.0969 v 0.0823 0.0821 l -0.33743,0.14931 -0.33744,0.14952 -0.28696,0.025 -0.28695,0.0252 -0.48441,0.0825 -0.48463,0.0827 -0.60127,0.19682 -0.60149,0.19682 -0.29459,0.039 -0.29438,0.039 -0.0766,0.0764 -0.0766,0.0766 h -0.19873 -0.19851 l -0.73977,-0.5158 -0.73977,-0.51581 -0.21082,-0.13467 -0.21081,-0.13468 -0.65154,-0.32238 -0.65154,-0.32216 -0.48696,-0.27614 -0.48696,-0.27593 -0.38176,0.002 -0.38176,0.002 -0.48865,0.22163 -0.48866,0.22143 -0.21718,0.19406 -0.21718,0.19385 -0.43436,0.16373 -0.43435,0.16352 -0.49269,-0.032 -0.49268,-0.032 -0.14422,0.0891 -0.14401,0.0891 -0.008,0.42015 -0.008,0.42036 -0.0791,0.0554 -0.0793,0.0554 -0.0734,0.29289 -0.0736,0.29269 0.30923,0.0617 0.30923,0.0615 0.54295,0.11432 0.54295,0.11431 1.20085,0.58707 1.20063,0.58706 0.51835,0.47593 0.51814,0.47572 -0.0768,0.88017 -0.0768,0.88017 -0.44008,-0.37689 -0.44009,-0.37667 h -0.15588 -0.15589 l -0.3404,-0.37115 -0.34041,-0.37095 -1.11092,-0.55207 -1.11093,-0.55185 h -0.10837 -0.10838 l -0.84391,-0.39788 -0.8439,-0.39788 -1.52026,0.30519 -1.52025,0.30541 -0.81443,0.19534 -0.81442,0.19533 -1.19449,0.28102 -1.19449,0.28102 -0.31856,0.0797 -0.31834,0.0797 -0.0872,0.32365 -0.087,0.32386 0.06,0.19003 0.0598,0.19025 0.22821,0.12216 0.228,0.12195 0.68441,-0.0149 0.68441,-0.0148 1.00764,-0.27232 1.00764,-0.27254 0.38006,-0.0623 0.38007,-0.0624 0.59724,-0.20127 0.59724,-0.20127 0.66724,-0.16862 0.66723,-0.16839 h 0.42524 0.42545 l 0.24496,0.33128 0.24497,0.33107 0.23966,0.0912 0.23966,0.0912 1.19173,0.80742 1.19194,0.80743 0.41803,0.28759 0.41824,0.28759 0.36904,0.0692 0.36925,0.0693 v 0.0702 0.0702 l -0.76946,0.4 -0.76946,0.4 -0.61506,-0.33001 -0.61506,-0.33001 -0.21718,-0.19788 -0.21718,-0.19767 -1.23776,-0.60615 -1.23775,-0.60594 h -0.41676 -0.41654 l -0.5175,0.12259 -0.51729,0.12259 -1.14019,0.29671 -1.14019,0.29671 -1.52026,0.39089 -1.52026,0.39066 -1.68314,0.35886 -1.68314,0.35886 -0.0331,0.63817 -0.0331,0.63818 0.9018,-0.0734 0.90181,-0.0734 0.76012,-0.16882 0.76013,-0.16861 0.43436,-0.0954 0.43436,-0.0952 0.27148,-0.0702 0.27147,-0.07 0.70583,-0.13659 0.70584,-0.13658 1.39173,-0.28569 1.39152,-0.28568 h 0.25726 0.25727 l 0.25132,0.10901 0.25154,0.10902 0.48866,0.37794 0.48865,0.37794 1.19703,0.80616 1.19725,0.80615 0.40042,0.19109 0.40043,0.19088 0.44305,-0.47953 0.44306,-0.47975 0.47126,-0.70583 0.47126,-0.70584 0.25706,-0.2333 0.25726,-0.23351 0.52195,-0.17455 0.52196,-0.17476 1.03372,-0.16627 1.03372,-0.16628 0.18176,-0.0986 0.18176,-0.0984 0.54295,-0.15971 0.54295,-0.1597 0.59725,-0.12789 0.59724,-0.12789 0.32577,-0.0982 0.32577,-0.098 1.38834,-0.33617 1.38855,-0.33595 0.13171,0.0643 0.13191,0.0645 0.48866,0.37031 0.48865,0.3701 0.90881,0.58006 0.9088,0.57985 0.53107,0.45939 0.53129,0.45917 0.35164,0.17752 0.35186,0.17752 0.27147,0.25048 0.27148,0.25048 0.65153,0.214 0.65154,0.21399 1.13914,-0.0916 1.13913,-0.0918 0.43542,-0.0689 0.43542,-0.0691 0.57031,-0.16098 0.57031,-0.16098 0.51559,-0.28292 0.51558,-0.28293 0.34783,-0.33362 0.34804,-0.33383 0.41209,-0.11961 0.4123,-0.11962 0.24221,0.10901 0.2422,0.1088 0.053,0.1737 0.053,0.17349 -0.0963,0.41782 -0.0961,0.41782 -0.22714,0.21166 -0.22694,0.21145 0.0651,0.25897 0.0649,0.25917 -0.22715,0.19449 -0.22693,0.19448 v 0.23712 0.23711 l -0.2087,-0.0545 -0.20869,-0.0545 -0.55144,0.83266 -0.55143,0.83288 v 0.0874 0.0874 l -0.24433,0.18112 -0.24432,0.18113 0.65153,-0.0526 0.65154,-0.0526 0.30902,0.25006 0.30901,0.25005 -0.17073,0.33001 -0.17052,0.33001 -0.39215,0.24221 -0.39194,0.24242 -0.47699,-0.23839 -0.47699,-0.23818 -0.35525,-0.0571 -0.35525,-0.0573 -0.48866,0.19088 -0.48865,0.19088 -2.34401,0.0223 -2.34402,0.0223 -0.21781,0.11664 -0.21782,0.11644 -0.5438,-0.51029 -0.54401,-0.5105 -0.42354,-0.14846 -0.42333,-0.14846 -0.27147,-0.24327 -0.27148,-0.24348 -1.30308,-0.84645 -1.30307,-0.84623 -0.46469,-0.30923 -0.46469,-0.30923 h -0.10265 -0.10265 l -0.15843,0.30626 -0.15822,0.30626 -1.8263,0.61379 -1.82609,0.61357 -1.28993,0.44497 -1.28993,0.44496 -0.61039,0.27508 -0.6104,0.27508 -0.84517,0.30986 -0.84518,0.30986 -0.13595,-0.0522 -0.13616,-0.0522 -0.0151,0.19257 -0.0151,0.19279 -0.14273,0.48866 -0.14295,0.48865 -0.1368,0.14359 -0.1368,0.14337 v 0.31813 0.31792 l 0.13574,0.0125 0.13574,0.0125 0.21718,-0.0176 0.21717,-0.0178 0.86872,-0.33658 0.86872,-0.3368 0.3421,-0.14677 0.3421,-0.14676 h 0.15207 0.15186 l 0.10307,-0.10244 0.10329,-0.10244 1.16077,-0.3841 1.16076,-0.38388 0.60149,-0.32534 0.60148,-0.32556 0.16522,0.0634 0.16522,0.0634 v -0.12026 -0.12025 h 0.21294 0.21293 l 0.23203,-0.24433 0.23181,-0.24433 0.25494,-0.57009 0.25493,-0.5701 h 0.15164 0.15143 l 0.9035,0.54295 0.90329,0.54295 h 0.0358 0.0361 l 0.73404,0.50159 0.73404,0.50159 0.0543,0.0685 0.0543,0.0685 0.34847,0.24433 0.34846,0.24433 h 0.0702 0.07 l 0.48293,0.32598 0.48293,0.32577 0.29289,0.14867 0.29311,0.14868 0.49481,0.0719 0.4948,0.0719 0.64539,-0.2123 0.64539,-0.21251 1.06914,-0.44263 1.06893,-0.44263 h 0.0984 0.0982 v 0.64645 0.64644 l 0.12725,0.27954 0.12747,0.27953 -0.10965,0.10965 -0.10965,0.10944 -0.39767,0.0647 -0.39788,0.0645 v -0.17709 -0.1771 l -0.20276,0.20276 -0.20276,0.20276 -0.50307,0.0753 -0.50329,0.0755 v 0.10201 0.1018 h -0.15377 -0.15376 l -0.0492,-0.13573 -0.0492,-0.13574 -0.25854,0.15588 -0.25853,0.15568 -0.2946,0.14888 -0.29459,0.14889 -0.21336,-0.11432 -0.21336,-0.1141 -0.17434,0.067 -0.17434,0.0668 -1.21803,-0.62079 -1.21803,-0.62099 -0.32577,-0.2999 -0.32577,-0.30011 -0.70583,-0.4229 -0.70583,-0.42312 -0.45727,-0.32513 -0.45748,-0.32514 -0.004,-0.13934 -0.004,-0.13955 -0.33701,0.38388 -0.33701,0.38367 h -0.15165 -0.15164 v 0.14613 0.14591 l 1.11305,0.95101 1.11304,0.95101 0.22227,0.0865 0.22227,0.0863 0.26639,0.28059 0.26638,0.28081 0.10859,0.006 0.10859,0.006 0.32577,0.48908 0.32577,0.48908 0.18982,0.34846 0.19003,0.34846 2.2e-4,0.38685 2.2e-4,0.38685 -0.32811,0.24242 -0.32789,0.24263 -0.18791,-0.34676 -0.1877,-0.34656 -0.26744,-0.22842 -0.26745,-0.22842 -0.31028,-0.29777 -0.31008,-0.29777 -0.83139,-0.67954 -0.83139,-0.67953 -0.29586,-0.21718 -0.29608,-0.21718 -0.73468,-0.5701 -0.73447,-0.5701 h -0.29607 -0.29587 l -0.0698,0.11305 -0.0698,0.11304 -0.19067,-0.0605 -0.19046,-0.0604 -1.94507,0.69459 -1.94486,0.69481 -1.57455,0.5018 -1.57455,0.50181 -0.14741,-4.4e-4 -0.1474,-2.2e-4 -0.73956,0.17837 -0.73934,0.17858 -0.47063,-0.28144 -0.47041,-0.28144 -0.57667,-0.57583 -0.57667,-0.57561 -0.7807,-0.88971 -0.78071,-0.88972 -0.30943,-0.38621 -0.30923,-0.38622 h -0.19979 -0.19979 l -0.84835,0.26639 -0.84815,0.26638 -1.14019,0.17158 -1.1402,0.17137 -0.54295,0.17243 -0.54295,0.17242 -0.32576,0.1368 -0.32577,0.13701 -0.66278,0.23012 -0.66257,0.23012 -1.07487,-4.4e-4 -1.07466,-4.3e-4 0.32577,-0.26702 0.32577,-0.26702 0.0738,-0.004 0.0736,-0.004 0.84942,-0.53277 0.84921,-0.53298 1.57455,-0.38706 1.57455,-0.38728 0.7052,-0.1211 0.7052,-0.1211 0.89014,-0.42482 0.88992,-0.42481 h 0.11135 0.11135 l 0.38261,-0.1824 0.38282,-0.1824 0.70838,-0.90456 0.70859,-0.90435 0.53128,0.26914 0.53108,0.26914 0.0373,0.0995 0.0373,0.0995 0.51135,0.38855 0.51156,0.38834 0.57455,0.2895 0.57434,0.2895 0.54295,0.34931 0.54295,0.34932 0.41824,0.24962 0.41824,0.24963 0.0959,-0.15143 0.0959,-0.15143 0.002,-0.1211 0.002,-0.12111 0.21358,-0.27168 0.21378,-0.27169 0.41061,-0.0666 0.41082,-0.0666 0.43436,-0.22927 0.43435,-0.22906 0.39407,-0.3105 0.39427,-0.31049 0.31156,-0.0721 0.31177,-0.0719 1.1402,-0.36755 1.14019,-0.36777 0.86872,-0.28611 0.86872,-0.28589 0.77264,-0.35419 0.77264,-0.35419 0.0776,-0.30944 0.0776,-0.30944 0.10265,-0.12365 0.10265,-0.12365 0.56734,0.15419 0.56734,0.15419 0.43436,0.12174 0.43436,0.12174 0.27147,0.17158 0.27148,0.17158 0.17985,0.10987 0.18006,0.10986 0.88739,0.62439 0.88738,0.62439 h 0.0568 0.0568 l 1.07232,0.71156 1.07233,0.71177 0.46384,0.1525 0.46405,0.15249 1.79173,0.11304 1.79173,0.11304 0.42142,2.2e-4 0.42164,2.2e-4 0.35694,-0.37858 0.35716,-0.37858 0.33447,-0.49565 0.33446,-0.49566 v -0.16373 -0.16395 l 0.1158,0.0717 0.11602,0.0717 0.0596,-0.22821 0.0596,-0.228 h 0.0844 0.0842 l 0.0672,-0.17497 0.067,-0.17498 -0.18855,0.0723 -0.18876,0.0723 0.26066,-0.27741 0.26065,-0.27742 h -0.13213 -0.13192 l -0.13128,0.1069 -0.13107,0.10689 -0.37455,0.30032 -0.37455,0.30032 0.0725,-0.19003 0.0725,-0.19004 h -0.20022 -0.20021 l -0.47508,0.17392 -0.47508,0.17412 -1.0859,0.19194 -1.0859,0.19173 -0.54294,-0.0261 -0.54295,-0.0261 -0.45239,-0.16119 -0.45239,-0.16098 -0.30774,-0.23923 -0.30774,-0.23945 -0.86872,-0.56437 -0.86872,-0.56416 -0.32577,-0.14422 -0.32577,-0.14401 -0.54295,-0.35758 -0.54294,-0.35737 -0.76013,-0.38028 -0.76013,-0.38028 -1.30308,0.25578 -1.30308,0.25578 -0.43436,0.11347 -0.43436,0.11347 -0.54295,0.1667 -0.54294,0.1667 -0.92302,0.26936 -0.92301,0.26935 -0.61803,0.14359 -0.61803,0.14379 -0.56373,0.40509 -0.56374,0.40509 -0.0768,-0.12407 -0.0766,-0.12386 -0.13934,0.16798 -0.13955,0.16818 h 0.12195 0.12195 v 0.11199 0.11219 l -0.19003,0.0814 -0.19004,0.0814 -0.35822,0.21357 -0.35843,0.21379 -0.12343,0.45281 -0.12344,0.45302 -0.18727,0.24836 -0.18749,0.24836 -0.63394,-0.30372 -0.63393,-0.30371 -0.16289,-0.0982 -0.16288,-0.0982 -0.74316,-0.40806 -0.74295,-0.40785 -0.28866,-0.16692 -0.28844,-0.16691 -0.43436,-0.29778 -0.43436,-0.29777 -0.5158,-0.33892 -0.5158,-0.33892 v -0.0922 -0.0923 h -0.15461 -0.15461 l -0.32429,0.27275 -0.32428,0.27296 -0.47127,0.0978 -0.47126,0.0978 -1.0316,0.28186 -1.03161,0.28208 -0.21718,0.0954 -0.21718,0.0954 -0.65154,0.16967 -0.65153,0.16946 -0.90329,0.22376 -0.90329,0.22375 -1.25006,0.2702 -1.25005,0.27042 h -0.29799 -0.2982 l -1.07762,0.38833 -1.07784,0.38834 -0.35631,0.10626 -0.3561,0.10625 -0.67551,0.3035 -0.67529,0.30329 -0.59724,0.27105 -0.59725,0.27084 -0.81442,0.30498 -0.81442,0.30499 -0.55907,0.2439 -0.55928,0.24369 -0.35186,0.0774 -0.35207,0.0772 -0.93489,0.43117 -0.93489,0.43118 -0.38006,0.14465 -0.38007,0.14464 -0.9773,0.37201 -0.97731,0.372 -1.19449,0.46278 -1.19449,0.46257 -0.70583,0.26893 -0.70584,0.26914 -0.62439,0.27805 -0.62439,0.27784 v 0.0836 0.0833 l 0.5158,0.30753 0.5158,0.30753 0.18537,0.11007 0.18537,0.11008 0.95482,0.5508 0.95483,0.55079 0.59724,0.36352 0.59725,0.36374 0.4246,0.27995 0.4246,0.28017 0.38983,0.2367 0.38982,0.2369 0.32576,0.18367 0.32577,0.18346 0.59725,0.4017 0.59724,0.4019 0.70584,0.3701 0.70583,0.36988 1.16967,0.78516 1.16989,0.78537 0.56755,0.31219 0.56776,0.31241 0.48866,0.33044 0.48865,0.33064 0.52514,0.31156 0.52534,0.31177 0.57667,0.32577 0.57667,0.32577 0.77243,0.51581 0.77222,0.5158 h 0.0511 0.0511 l 0.60573,0.40721 0.60572,0.40721 0.57222,0.32577 0.57222,0.32577 0.48017,0.25642 0.48017,0.25662 0.21718,0.1841 0.21718,0.1843 1.00573,0.61591 1.00573,0.61591 0.94888,0.58621 0.94889,0.58622 0.38007,0.19258 0.38006,0.19279 0.82821,0.55334 0.82821,0.55355 0.56416,0.32577 0.56416,0.32577 0.61654,0.39194 0.61654,0.39215 0.77477,0.50372 0.77455,0.50392 h 0.0615 0.0613 l 0.48271,0.32577 0.48272,0.32577 h 0.0959 0.0961 l 0.37688,0.26893 -2.1e-4,2.2e-4 0.37709,0.26893 0.43436,-0.0615 0.43436,-0.0617 1.19449,-0.43011 1.19449,-0.43012 0.3421,-0.15737 0.34231,-0.15737 h 0.0836 0.0833 l 0.71453,-0.31899 0.71453,-0.31898 1.30308,-0.55525 1.30308,-0.55546 0.48865,-0.20615 0.48866,-0.20594 1.95461,-0.85939 1.95462,-0.85938 0.27147,-0.0812 0.27148,-0.081 0.32577,-0.13871 0.32577,-0.13849 1.0859,-0.45727 1.08589,-0.45748 0.76013,-0.35779 0.76013,-0.3578 2.60616,-1.10307 2.60615,-1.10308 0.65154,-0.28038 0.65154,-0.28017 0.10859,-0.0819 0.10859,-0.0819 0.76013,-0.29841 0.76013,-0.29819 0.12661,-0.0997 0.12641,-0.0997 1.33956,-0.52513 1.33934,-0.52535 1.52026,-0.67423 1.52026,-0.67444 0.8036,-0.37986 0.80361,-0.37985 0.39088,-0.1387 0.39088,-0.13871 0.70584,-0.33235 0.70583,-0.33213 0.73383,-0.27402 0.73383,-0.27423 0.81039,-0.38452 0.81061,-0.38473 h 0.0653 0.0651 l 1.1595,-0.53107 1.15949,-0.53107 1.41167,-0.61612 1.41167,-0.61612 0.21718,-0.0956 0.21718,-0.0957 0.86871,-0.39894 0.86872,-0.39873 0.81443,-0.3264 0.81442,-0.32641 0.92301,-0.46087 0.92302,-0.46065 0.27147,-0.0842 0.27148,-0.084 0.81442,-0.37434 0.81442,-0.37413 0.65154,-0.30625 0.65154,-0.30647 0.97731,-0.40191 0.97731,-0.40191 0.59109,-0.32641 0.59109,-0.32661 0.71199,-0.26363 0.71198,-0.26363 1.27593,-0.55398 1.27593,-0.55419 v -0.13743 -0.13765 l -0.4615,-0.26405 -0.46151,-0.26426 -1.43691,-0.82885 -1.4369,-0.82863 -0.35483,-0.14846 -0.35482,-0.14825 -0.1491,-0.17964 -0.14889,-0.17986 -0.12259,-0.001 -0.12237,-0.001 -1.26915,-0.78622 -1.26914,-0.78621 -0.3597,-0.21103 -0.35971,-0.21124 -1.19449,-0.67445 -1.19448,-0.67466 -0.27636,-0.21718 -0.27614,-0.21696 -1.62418,-0.88929 -1.62397,-0.8893 -0.21718,-0.19024 -0.21718,-0.19046 -0.65154,-0.35906 -0.65153,-0.35907 -0.16289,-0.12725 -0.16288,-0.12726 -0.95016,-0.41612 -0.95017,-0.41612 v -0.0948 -0.0948 l 0.16289,-0.0623 0.16288,-0.0626 v -0.20254 -0.20255 l -0.4615,0.0433 -0.46151,0.0433 -0.21782,0.0509 -0.21781,0.0511 -1.13956,0.23436 -1.13955,0.23436 -0.56395,0.15822 -0.56395,0.15822 -0.77985,0.1474 -0.77985,0.14761 -1.26236,-0.014 -1.26236,-0.014 -0.65153,-0.44518 -0.65154,-0.44518 -0.79619,-0.51346 -0.79597,-0.51368 -0.26278,0.066 -0.26256,0.066 -4.4e-4,-0.19216 -4.3e-4,-0.19194 -0.62524,-0.40997 -0.62524,-0.40997 -0.3578,-0.33446 -0.35779,-0.33447 -0.68845,0.0558 -0.68844,0.0558 -0.7983,0.17604 -0.79852,0.17582 -0.43436,0.11198 -0.43436,0.11198 -0.81442,0.16013 -0.81443,0.16013 -0.6352,0.0645 -0.63542,0.0643 -0.45048,-0.24878 -0.45069,-0.24857 -1.06851,-0.71538 -1.06872,-0.71517 -0.56013,-0.34803 -0.56034,-0.34804 -0.43436,-0.2123 -0.43436,-0.21231 -0.31495,-0.0967 -0.31495,-0.0967 -0.0276,-0.41315 -0.0276,-0.41315 -0.11538,-0.11517 z m 13.4312,0.90499 h 0.11028 0.11029 l 0.0626,0.16288 0.0626,0.16289 h -0.0378 -0.0375 l -0.1351,-0.16289 z m 0.37624,0.0129 0.19831,0.12387 0.19809,0.12386 -0.0528,0.0855 -0.0528,0.0857 0.1544,-0.0594 0.15461,-0.0592 0.16395,0.16395 0.16394,0.16394 0.0672,-0.0672 0.0672,-0.0672 v 0.172 0.1718 l -0.13574,0.064 -0.13574,0.0641 0.2806,-0.0526 0.28059,-0.0524 0.30987,0.32323 0.30965,0.32343 h -0.10478 -0.10498 l -0.15652,-0.21717 -0.15652,-0.21718 h -0.13553 -0.13552 l 0.0641,0.16691 0.064,0.16713 -0.37328,-0.22036 -0.37349,-0.22037 -0.22206,-0.24538 -0.22206,-0.24518 -0.0575,-0.23796 z m -13.25962,0.71581 0.11474,0.11474 0.11474,0.11474 -0.0475,0.14252 -0.0475,0.14231 -0.0672,-0.25705 z m -13.26725,1.76882 h 0.10837 0.10838 l 0.49629,0.31453 0.49629,0.31474 0.62057,0.24603 0.62058,0.24602 0.13701,0.1052 0.13701,0.10519 -0.12323,0.14868 -0.12322,0.14846 h -0.35334 -0.35356 l -0.1351,0.16289 -0.13531,0.16288 -0.12237,-0.003 -0.12238,-0.002 -0.2649,-0.2036 -0.26511,-0.20382 -0.90223,-0.41485 -0.90244,-0.41506 v -0.0829 -0.0829 l 0.53934,-0.27338 z m 14.11264,0.081 0.52132,0.3018 0.52153,0.30202 0.4053,0.31644 0.4053,0.31665 0.11729,-0.0725 0.11749,-0.0725 0.40573,0.43945 0.40594,0.43966 0.48314,0.11135 0.48314,0.11134 0.90159,0.003 0.90138,0.003 1.16183,-0.22461 1.16161,-0.2246 0.21718,-0.0974 0.21718,-0.0974 0.65154,-0.1561 0.65154,-0.15588 0.40721,-0.0698 0.40721,-0.07 v 0.16628 0.16628 l 0.40722,0.26299 0.40721,0.2632 0.35398,0.073 0.35376,0.0732 -0.0571,0.0923 -0.0571,0.0923 0.24093,0.16861 0.24072,0.16861 0.085,-0.13404 0.0853,-0.13404 0.002,0.1894 0.001,0.18939 0.42694,0.30923 0.42672,0.30923 0.60467,0.3158 0.60445,0.3158 2.2e-4,0.11113 2.2e-4,0.11093 0.40721,0.19766 0.40721,0.19746 0.52471,0.27296 0.52492,0.27275 2.08124,-0.0732 2.08144,-0.0732 0.38007,0.009 0.38006,0.009 0.62439,0.22906 0.62439,0.22906 v 0.0844 0.0842 l -0.78727,0.0713 -0.78728,0.0715 -0.58515,0.11326 -0.58516,0.11347 -1.31516,0.0742 -1.31517,0.074 -1.24878,-0.004 -1.24879,-0.004 -0.54295,-0.36373 -0.54294,-0.36374 -0.92302,-0.58494 -0.92301,-0.58515 -0.10159,-10e-4 -0.10159,-0.001 -0.22418,-0.20891 -0.22418,-0.20891 -0.70583,-0.40042 -0.70584,-0.40021 -0.86872,0.0649 -0.86872,0.0651 -0.98409,0.21484 -0.98388,0.21506 -1.12174,0.0897 -1.12153,0.0897 -0.76883,-0.0823 -0.76861,-0.0821 -0.46808,-0.3298 -0.46787,-0.3298 h -0.0638 -0.0636 l -0.51771,-0.38006 -0.51771,-0.38007 -0.41993,10e-4 -0.41973,0.001 -0.59724,0.16925 -0.59725,0.16903 -0.36628,0.0927 -0.36606,0.0927 -0.0959,0.0957 -0.0959,0.0959 0.8965,0.61931 0.89629,0.61908 0.0946,-0.21018 0.0946,-0.21018 0.26406,0.10032 0.26405,0.10032 0.45302,0.35355 0.45302,0.35334 0.21973,0.27148 0.21951,0.27147 0.22333,0.21718 0.22333,0.21718 0.25769,0.38007 0.25748,0.38006 0.0191,0.0291 0.0189,0.0293 0.55949,0.14506 0.55949,0.14507 1.15504,-0.47084 1.15504,-0.47062 0.39216,-0.066 0.39194,-0.066 0.38006,-0.17519 0.38007,-0.17518 0.10859,-0.0159 0.10859,-0.0159 0.19003,-0.0165 0.19003,-0.0165 v -0.21718 -0.21718 h 0.51877 0.51877 l 0.17116,0.2 0.17115,0.2 0.26024,0.18303 0.26023,0.18325 -0.13913,0.0867 -0.13892,0.087 0.62758,0.17815 0.62778,0.17816 0.43436,0.28314 0.43436,0.28335 -0.18452,-0.0573 -0.18452,-0.0571 0.0619,0.1614 0.0619,0.1614 0.28548,0.14974 0.28547,0.14952 0.21888,0.19937 0.21908,0.19915 0.42397,0.29353 0.42418,0.29353 0.0952,-0.059 0.095,-0.0588 -0.11898,-0.14358 -0.11919,-0.14359 0.1071,-0.0662 0.10732,-0.0662 0.088,0.14952 0.0882,0.14953 0.39194,0.18367 0.39215,0.18367 0.36798,0.0301 0.36818,0.0299 0.38431,0.19109 0.38431,0.1913 0.0216,0.26215 0.0216,0.26235 h -0.10732 -0.10731 l -0.0808,-0.0272 -0.0806,-0.0271 0.0312,-0.13574 0.0312,-0.13574 h -0.0645 -0.0645 l -0.32047,0.16564 -0.32025,0.16586 v 0.0588 0.0587 l 0.21718,-0.0689 0.21718,-0.0689 v 0.11601 0.1158 l -0.24433,0.0129 -0.24433,0.0129 -0.13573,-0.0176 -0.13574,-0.0176 -2.2e-4,0.0861 v 0.0861 l -0.89586,0.0325 -0.89566,0.0324 -0.35292,0.11178 -0.35291,0.11177 v 0.0906 0.0903 l -0.47105,0.228 v 2.1e-4 l -0.47105,0.228 -1.10775,0.036 -1.10753,0.0361 -0.0445,-0.0721 -0.0445,-0.0719 0.1947,-0.31813 0.19449,-0.31814 0.46151,-0.24433 0.46171,-0.24432 h 0.1052 0.10541 l 0.59343,-0.27148 0.59342,-0.27147 h 0.15971 0.1597 v -0.10117 -0.10138 l -0.20509,-0.0651 -0.20509,-0.0651 -0.26087,-0.24072 -0.26066,-0.24094 -1.05451,-0.51877 -1.0543,-0.51877 v -0.0933 -0.0933 l -0.48632,-0.0727 -0.48632,-0.073 -0.62672,0.18346 -0.62673,0.18367 -0.9404,0.31134 -0.94041,0.31135 -0.36267,0.003 -0.36267,0.002 -0.47084,0.10859 -0.47084,0.10859 -0.77794,-0.39301 -0.77795,-0.393 -0.32577,-0.29671 -0.32577,-0.29671 -0.56182,-0.35038 -0.56162,-0.35058 -0.13022,-0.15695 -0.13022,-0.15694 h -0.13659 -0.13637 l -0.60424,-0.36374 -0.60446,-0.36394 -0.82036,-0.62842 -0.82057,-0.62864 v -0.14782 -0.14783 h -0.27869 -0.27847 l -0.20637,0.1105 -0.20636,0.1105 -0.95398,0.15928 -0.95377,0.15949 -0.65153,0.17158 -0.65154,0.17158 -0.32577,0.0952 -0.32577,0.095 -1.24878,0.28696 -1.24879,0.28696 -0.76013,0.15355 -0.76012,0.15377 -0.13574,2.1e-4 h -0.13574 l 0.0108,-0.40721 0.0108,-0.40721 0.0755,-0.27126 0.0755,-0.27126 0.80954,-0.18219 0.80955,-0.18197 0.59724,-0.15716 0.59725,-0.15695 0.92301,-0.27656 0.92302,-0.27678 2.1175,-0.5018 2.1175,-0.50202 1.19449,-0.28144 1.19448,-0.28123 0.54295,-0.26914 0.54295,-0.26914 0.2386,-0.21888 z m 14.33216,2.74232 h 0.11516 0.11496 v 0.10859 0.10859 h -0.0479 -0.0479 l -0.067,-0.10859 z m -16.93068,2.3491 0.0607,0.0607 0.0609,0.0609 -0.1947,0.0742 -0.1947,0.074 0.13383,-0.13489 z m 14.22887,1.54189 0.43436,0.34401 0.43436,0.34401 v 0.0452 0.0452 l -0.0272,-0.006 -0.0271,-0.007 -0.40722,-0.2666 -0.40721,-0.2666 v -0.11622 z m -5.2666,3.54741 -0.1491,0.19003 -0.1491,0.19003 h -0.0409 -0.0409 v -0.0411 -0.0409 l 0.19003,-0.1491 z m -28.45266,2.1175 -0.13552,0.21718 -0.13574,0.21718 h -0.16203 -0.16183 v 0.34253 0.34273 l 0.29629,0.39025 0.29629,0.39045 0.59958,0.64518 0.59957,0.64539 0.54295,0.52407 0.54295,0.52407 0.27148,0.0687 0.27147,0.0687 0.30774,0.25578 v 2.2e-4 l 0.30796,0.25578 0.30159,-0.21464 0.30159,-0.21485 0.053,0.053 0.053,0.053 0.30117,-0.15631 0.30117,-0.1561 0.17646,0.0621 0.17667,0.0622 -0.48866,-0.44921 -0.48865,-0.44942 -0.0967,-0.002 -0.0965,-0.001 -0.15334,0.19003 -0.15334,0.19003 0.0742,-0.27147 0.0742,-0.27147 0.0942,-0.0363 0.0944,-0.0363 v -0.25281 -0.2526 l -0.31495,-0.25408 -0.31474,-0.25387 -0.55398,-0.38007 -0.55376,-0.38006 -0.98686,-0.73298 -0.98685,-0.73298 h -0.12725 z m 16.67066,0.10859 h 0.11495 0.11496 l -0.067,0.10859 -0.0672,0.10859 h -0.0477 -0.0479 v -0.10859 z m -20.31584,2.91305 0.0991,0.0613 0.099,0.0613 0.0764,0.7737 0.0761,0.77392 0.0863,0.23308 0.0861,0.23288 0.0961,-0.0329 0.0963,-0.0329 0.0382,0.19576 0.0382,0.19576 0.28569,0.38006 0.28568,0.38006 0.65345,0.68717 0.65345,0.68717 0.16076,0.26299 0.16098,0.263 h 0.11049 l 0.11072,2.1e-4 0.30562,0.38304 0.30583,0.38324 -0.32492,0.11326 -0.32513,0.11347 -0.11008,0.31537 -0.10986,0.31559 0.0749,0.0433 0.0751,0.0433 0.73298,0.0764 0.73298,0.0764 v 0.16331 0.16331 l 0.0814,-0.0384 0.0814,-0.0386 1.24306,-0.62206 1.24306,-0.62227 h 0.1703 0.17031 l 1.19279,-0.60446 1.19279,-0.60466 1.01697,-0.42694 1.01718,-0.42715 h 0.16056 0.16076 l 0.31644,-0.18685 0.31643,-0.18685 -0.0418,-0.11177 -0.0418,-0.11177 -0.11177,0.0238 -0.11177,0.0238 -0.13553,-0.16331 -0.13531,-0.1631 0.25599,-0.24051 0.25621,-0.24051 0.69947,-0.4615 0.69947,-0.46151 h 0.19682 0.19682 l 0.22142,0.23754 0.22142,0.23775 v 0.088 0.0882 h 0.12132 0.12152 l 0.39428,0.32386 0.39448,0.32386 0.16289,0.16161 0.16288,0.16161 0.90032,0.7788 0.90032,0.77858 0.11474,0.21442 0.11474,0.21442 -0.14634,0.13595 -0.14634,0.13595 -0.37519,0.12492 -0.37497,0.12492 -0.65663,-0.63627 -0.65642,-0.63605 -0.31325,-0.23457 -0.31326,-0.23457 h -0.28653 -0.28632 l -1.24391,0.43435 -1.24411,0.43436 h -0.0295 -0.0295 v 0.25557 0.25578 l 0.63458,0.69438 0.63457,0.6946 0.0558,0.29629 0.0558,0.2965 -0.4702,0.22757 -0.47021,0.22757 -0.22184,-0.0702 -0.22164,-0.0704 0.059,-0.0954 0.0588,-0.0952 -0.24729,-0.12217 -0.2473,-0.12216 -0.54295,-0.59343 -0.54295,-0.59364 -0.63012,0.0744 -0.6299,0.0742 0.0564,0.14719 0.0566,0.1474 h -0.25132 -0.25133 l -0.19639,0.21718 -0.19661,0.21718 h -0.18706 -0.18707 l -0.12937,0.15589 -0.12938,0.15588 -0.32343,0.071 -0.32344,0.0711 -0.12959,0.20742 -0.12958,0.20743 h -0.39937 -0.39936 l -0.16522,0.0634 -0.16522,0.0634 0.11962,0.26235 0.11941,0.26236 h 0.0696 0.0694 l 0.11452,-0.11474 0.11475,-0.11453 0.26002,0.0672 0.26002,0.0675 0.36564,0.48165 0.36543,0.48166 h 0.0986 0.0986 l 0.10329,0.27147 0.10308,0.27148 h 0.21993 0.21994 v 0.39448 0.3947 l -0.76776,-0.0549 -0.76777,-0.0549 -0.35037,-0.33977 -0.35058,-0.33955 h -0.0806 -0.0808 l -0.33468,0.24432 -0.33468,0.24433 -0.34676,0.32577 -0.34677,0.32577 -0.67805,0.52407 -0.67805,0.52407 -0.3701,0.15462 -2.1e-4,-2.2e-4 -0.36989,0.15461 h -0.0865 -0.0865 l -0.43288,-0.23075 -0.43266,-0.23075 -0.0543,-0.0838 -0.0543,-0.0838 -0.48865,-0.13107 -0.48866,-0.13108 -0.62439,-0.63966 -0.62439,-0.63966 v -0.14846 -0.14868 l -0.33531,-0.42206 -0.33553,-0.42227 -0.586,-0.62439 -0.586,-0.62439 h -0.38664 -0.38664 l -0.23924,0.25642 -0.23945,0.2562 -0.56182,0.63966 -0.56183,0.63945 -0.44263,0.59449 -0.44263,0.59427 v 0.0728 0.0727 l -0.18282,0.0702 -0.18282,0.07 -0.22015,-0.22015 -0.22015,-0.22015 0.13149,-0.13149 0.1315,-0.1315 0.003,-0.33128 0.002,-0.33129 0.21696,-0.43436 0.21697,-0.43436 0.25727,-0.42014 0.25726,-0.42015 0.71707,-0.74465 0.71729,-0.74443 0.43076,-0.21973 0.43075,-0.21994 h 0.29438 0.29438 l 0.18664,0.16883 0.18642,0.16882 0.52789,0.20318 0.5279,0.20318 -0.0267,0.22948 -0.0265,0.2297 1.47827,1.48887 1.47847,1.48865 0.0965,0.25345 0.0963,0.25345 -0.0645,0.10434 -0.0643,0.10414 0.13107,0.15822 0.13129,0.15801 h 0.26362 0.26363 l 0.3175,-0.16416 0.3175,-0.16416 0.55588,-0.67741 0.55589,-0.67742 0.70244,-0.67805 0.70265,-0.67805 -0.0674,-0.10922 -0.0677,-0.10923 h -0.12216 -0.12217 l -0.47465,0.22991 -0.47466,0.22969 -0.62397,-0.045 -0.62417,-0.0452 -0.4034,-0.32047 -0.40318,-0.32046 -1.03627,-1.16734 -1.03627,-1.16756 -0.39024,-0.51559 -0.39025,-0.5158 -0.60785,-0.73722 -0.60763,-0.73744 -0.57052,0.0666 -0.57052,0.0666 -0.46109,0.25705 -0.46108,0.25705 -0.97731,0.32789 -0.97731,0.32789 -0.70583,0.28696 -0.70583,0.28696 -0.27975,0.33361 -0.27996,0.33341 -0.19109,-0.0734 -0.19131,-0.0734 -0.1228,-0.32556 -0.12301,-0.32555 h -0.12746 -0.12747 l -0.0624,0.16288 -0.0626,0.16289 h -0.0946 -0.0946 l -0.12344,-0.27105 -0.12365,-0.27105 0.37561,-0.15695 0.37561,-0.15673 0.65748,-0.38558 0.65748,-0.38537 0.2948,-0.0725 0.29459,-0.0725 0.21718,-0.13489 0.21718,-0.1351 0.37074,-0.0776 0.37073,-0.0774 0.66787,-0.29968 0.66808,-0.29968 0.61167,-0.17794 0.61187,-0.17774 0.0662,-0.1071 0.0662,-0.10732 h 0.31389 0.31368 l 0.27445,-0.24432 0.27465,-0.24433 0.37837,-0.27148 0.37858,-0.27147 -0.0526,-0.17455 -0.0526,-0.17476 0.16055,-0.13319 z m 14.79049,0.45324 h 0.10859 0.10859 l -0.067,0.10859 -0.0672,0.10859 h -0.10859 -0.10859 l 0.0672,-0.10859 z m -0.44709,0.21718 h 0.10859 0.10859 v 0.10859 0.10859 h -0.10859 -0.10859 v -0.10859 z m 0.31814,0.43435 h 0.1667 0.1667 v 0.21718 0.21718 h -0.0505 -0.0505 l -0.11623,-0.21718 z m -8.07701,0.7438 -0.0388,0.11665 -0.039,0.11686 h 0.18113 0.18091 l -0.0388,-0.11686 -0.039,-0.11665 h -0.10308 z m 6.89037,6.00892 -0.0609,0.0984 -0.0609,0.0986 h -0.15631 -0.15653 v -0.0418 -0.0416 l 0.21718,-0.0568 z" />
    <text
       xml:space="preserve"
       transform="matrix(0.26458333,0,0,0.26458333,-9.8371204,66.686884)"
       id="text18143"
       style="font-size:40px;line-height:1.25;font-family:OddityFull;-inkscape-font-specification:OddityFull;white-space:pre;shape-inside:url(#rect18145);fill:#ffffff;fill-opacity:1" />
  </g>
</svg>
